<svg xmlns="http://www.w3.org/2000/svg" viewBox="0 0 683.22 663.05"><defs><style>.cls-1{fill:#f8af3f;}.cls-2{fill:#f9de6b;}.cls-3{fill:none;}.cls-4{fill:#b64a25;}</style></defs><g id="Calque_2" data-name="Calque 2"><g id="Calque_1-2" data-name="Calque 1"><path class="cls-1" d="M223.35,209.2V359H78.64V209.2H.41Q.2,404.71,0,600.23l78.42,62.82q.1-112.93.22-225.88H223.35V600.33h78.23V209.2Z"/><path class="cls-2" d="M683.22,287.15V208.92H449.05v39a197.37,197.37,0,0,1,20.67,18c18.44,18.44,32.41,39.11,41.91,62.58a186.86,186.86,0,0,1,15.65,76c0,26.83-5,52.53-15.65,76.56a179.31,179.31,0,0,1-41.91,62,206,206,0,0,1-20.67,18.13l78.22,39.42V437.45h97.5V359.23h-97.5V287.15Z"/><path class="cls-1" d="M613.63,167H533.22L341.81,53.11V0Z"/><path class="cls-2" d="M341.81,0V53.11l-.23-.14L78.64,209.2H.41Z"/><rect class="cls-1" x="315.67" y="114.28" width="21.3" height="21.3"/><rect class="cls-2" x="346.65" y="114.28" width="21.3" height="21.3"/><rect class="cls-1" x="315.67" y="145.26" width="21.3" height="21.3"/><rect class="cls-2" x="346.65" y="145.26" width="21.3" height="21.3"/><polyline class="cls-3" points="683.22 287.15 683.22 209.2 683.22 208.92"/><line class="cls-3" x1="624.77" y1="437.45" x2="624.77" y2="359.23"/><line class="cls-3" x1="613.63" y1="166.56" x2="533.22" y2="166.56"/><path class="cls-2" d="M131.31,167.22H97.13V82.7l34.18,10.39Z"/><path class="cls-4" d="M301.58,209.2V600.33m30.13-312.15H301.58V526.51h30.13c64.82,0,117.34-53.78,117.34-119.46S396.53,288.18,331.71,288.18Zm25.63,128v16.46a10.51,10.51,0,0,1-10.44,10.58,10.83,10.83,0,0,1-7.74-3.25,11.11,11.11,0,0,1-3.2-7.84v-16a23.39,23.39,0,1,1,21.38,0Z"/><line class="cls-3" x1="341.81" y1="69.32" x2="341.81" y2="53.11"/></g></g></svg>